<?xml version="1.0" encoding="iso-8859-1"?>
<!-- Uploaded to: SVG Repo, www.svgrepo.com, Generator: SVG Repo Mixer Tools -->
<svg height="800px" width="800px" version="1.1" id="Layer_1" xmlns="http://www.w3.org/2000/svg" xmlns:xlink="http://www.w3.org/1999/xlink" 
	 viewBox="0 0 511.844 511.844" xml:space="preserve">
<g>
	<path style="fill:#8CC153;" d="M304.188,149.689c-2.967-0.344-41.674-3.515-59.786,15.651
		c-13.457,13.762-12.52,32.178-0.539,44.674c12.488,11.966,30.897,12.918,44.674-0.546
		C307.688,191.363,304.516,152.656,304.188,149.689z"/>
	<path style="fill:#8CC153;" d="M186.334,234.991c2.96-0.328,41.667-3.515,59.779,15.651c13.456,13.777,12.512,32.178,0.539,44.674
		c-12.488,11.98-30.904,12.918-44.674-0.547C182.811,276.666,185.99,237.959,186.334,234.991z"/>
</g>
<g>
	<path style="fill:#A0D468;" d="M245.253,127.961c-5.889,0-10.661,4.78-10.661,10.669v234.585c0,5.889,4.772,10.668,10.661,10.668
		c5.889,0,10.669-4.779,10.669-10.668V138.63C255.922,132.741,251.142,127.961,245.253,127.961z"/>
	<path style="fill:#A0D468;" d="M126.29,241.021c14.019-11.747,22.938-29.366,22.938-49.079c0-35.333-28.647-63.98-63.98-63.98H0
		v106.64v21.32v127.961h95.971c41.222,0,74.641-33.412,74.641-74.648C170.612,278.806,152.406,252.642,126.29,241.021z
		 M21.329,149.282h63.918c23.517,0,42.651,19.135,42.651,42.659S108.763,234.6,85.247,234.6H21.329V149.282z M95.971,362.562H21.329
		v-106.64h63.918h10.724c29.397,0,53.312,23.915,53.312,53.312C149.282,338.631,125.368,362.562,95.971,362.562z"/>
	<path style="fill:#A0D468;" d="M415.873,127.961c-53,0-95.971,42.972-95.971,95.971v63.98c0,53,42.971,95.971,95.971,95.971
		c53.015,0,95.971-42.971,95.971-95.971v-63.98C511.844,170.933,468.888,127.961,415.873,127.961z M490.506,287.912
		c0,19.932-7.747,38.676-21.852,52.781c-14.105,14.09-32.85,21.868-52.781,21.868s-38.676-7.778-52.781-21.868
		c-14.105-14.105-21.853-32.85-21.853-52.781v-63.98c0-19.932,7.747-38.676,21.853-52.78c14.105-14.09,32.85-21.869,52.781-21.869
		s38.676,7.779,52.781,21.869c14.104,14.104,21.852,32.849,21.852,52.78V287.912z"/>
</g>
</svg>